<?xml version="1.0" encoding="utf-8"?>
<!-- Generator: Adobe Illustrator 19.1.0, SVG Export Plug-In . SVG Version: 6.00 Build 0)  -->
<svg version="1.1" id="Layer_1" xmlns="http://www.w3.org/2000/svg" xmlns:xlink="http://www.w3.org/1999/xlink" x="0px" y="0px"
     viewBox="781 -324.3 2404.4 1242.6" enable-background="new 781 -324.3 2404.4 1242.6" xml:space="preserve">
<g>

		<linearGradient id="SVGID_1_" gradientUnits="userSpaceOnUse" x1="836.2935" y1="657.2017" x2="1616.3716" y2="48.1408" gradientTransform="matrix(1 0 0 -1 0 592.6401)">
		<stop  offset="0" style="stop-color:#EEF64E"/>
            <stop  offset="1" style="stop-color:#EEF64E"/>
	</linearGradient>
    <path fill="url(#SVGID_1_)" d="M781-100.9l25.8-23.9L1642,500.7c0,0-90.4,63-96,52.5C1540.3,542.7,781-100.9,781-100.9z"/>

    <linearGradient id="SVGID_2_" gradientUnits="userSpaceOnUse" x1="1394.3881" y1="490.7401" x2="1568.4055" y2="52.6962" gradientTransform="matrix(1 0 0 -1 0 592.6401)">
		<stop  offset="0" style="stop-color:#A9EC62"/>
        <stop  offset="1" style="stop-color:#FCF84A"/>
	</linearGradient>
    <polygon fill="url(#SVGID_2_)" points="1529.5,547.2 1315,126.6 1455.8,44.3 1642,500.7 	"/>

    <linearGradient id="SVGID_3_" gradientUnits="userSpaceOnUse" x1="1032.2732" y1="-210.6314" x2="1341.3041" y2="563.4461" gradientTransform="matrix(1 0 0 -1 0 592.6401)">
		<stop  offset="0" style="stop-color:#21D78A"/>
        <stop  offset="1" style="stop-color:#A9EC62"/>
	</linearGradient>
    <polygon fill="url(#SVGID_3_)" points="1455.8,44.3 1063,893.7 917.5,788.9 1287.6,85 	"/>

    <linearGradient id="SVGID_4_" gradientUnits="userSpaceOnUse" x1="1096.5901" y1="-263.5987" x2="2656.7461" y2="501.4779" gradientTransform="matrix(1 0 0 -1 0 592.6401)">
		<stop  offset="0" style="stop-color:#21D78A"/>
        <stop  offset="1" style="stop-color:#07C3F2"/>
	</linearGradient>
    <polygon fill="url(#SVGID_4_)" points="3185.4,-324.3 3115,22.7 1062.3,918.3 917.5,788.9 	"/>
</g>
</svg>
