<?xml version="1.0" encoding="utf-8"?>
<!-- Generator: Adobe Illustrator 18.1.1, SVG Export Plug-In . SVG Version: 6.00 Build 0)  -->
<svg xmlns:xlink="http://www.w3.org/1999/xlink" version="1.1" id="Layer_1" xmlns="http://www.w3.org/2000/svg" x="0px" y="0px"
     width="189.3px" height="191.7px" viewBox="0 0 189.3 191.7" enable-background="new 0 0 189.3 191.7" xml:space="preserve">
<g>
	<rect x="5" y="5.1" fill="#231F20" width="179.9" height="179.9"/>
    <rect x="20.6" y="151.2" fill="#FFFFFF" width="67.4" height="11.2"/>
    <g>
		<path fill="#FFFFFF" d="M19.8,52.5l5.2-4.9c1.4,1.7,2.8,2.7,4.6,2.7c2,0,3.3-1.4,3.3-4.1V27.6H41v18.6c0,3.7-0.9,6.3-2.9,8.2
			c-1.9,1.9-4.7,3-8,3C25,57.4,21.9,55.3,19.8,52.5z"/>
        <path fill="#FFFFFF" d="M42.9,27.6h23.6v6.9H51V39h14.1v6.4H51V50h15.7v6.9H42.9V27.6z"/>
        <path fill="#FFFFFF" d="M77.1,34.7h-8.8v-7.1H94v7.1h-8.8v22.2h-8.1V34.7z"/>
        <path fill="#FFFFFF" d="M20.5,63.7h15c3.7,0,6.3,0.9,8,2.6c1.2,1.2,1.9,2.8,1.9,4.8v0.1c0,3.4-1.9,5.4-4.5,6.5
			c3.6,1.2,5.8,3.2,5.8,7.2V85c0,5-4.1,8.1-11.1,8.1H20.5L20.5,63.7L20.5,63.7z M37.5,72.8c0-1.6-1.3-2.5-3.7-2.5h-5.3v5.2h5.1
			C36,75.4,37.5,74.6,37.5,72.8L37.5,72.8z M34.7,81.1h-6.2v5.4h6.3c2.5,0,3.9-1,3.9-2.7v-0.1C38.6,82.2,37.4,81.1,34.7,81.1z"/>
        <path fill="#FFFFFF" d="M48,63.7h13.9c4.5,0,7.6,1.2,9.5,3.1c1.7,1.7,2.6,3.9,2.6,6.8v0.1c0,4.5-2.4,7.5-6,9l7,10.2h-9.3L59.8,84
			h-3.6v8.9h-8.1L48,63.7L48,63.7z M61.5,77.8c2.7,0,4.4-1.3,4.4-3.5v-0.1c0-2.3-1.7-3.5-4.4-3.5h-5.4v7.1H61.5z"/>
        <path fill="#FFFFFF" d="M83.5,63.5h7.8L103.8,93h-8.7L93,87.7H81.7L79.6,93h-8.5L83.5,63.5z M90.6,81.5l-3.3-8.3L84,81.5H90.6z"/>
        <path fill="#FFFFFF" d="M104.8,63.7h8.1V93h-8.1V63.7z"/>
        <path fill="#FFFFFF" d="M114.9,63.7h7.6l12.1,15.5V63.7h8V93h-7.1l-12.6-16v16.1h-8V63.7z"/>
        <path fill="#FFFFFF" d="M143.1,88.7l4.5-5.4c2.9,2.3,6.1,3.5,9.5,3.5c2.2,0,3.4-0.8,3.4-2v-0.1c0-1.3-1-1.9-5-2.8
			c-6.2-1.4-11.1-3.2-11.1-9.2v-0.1c0-5.4,4.3-9.4,11.3-9.4c5,0,8.9,1.3,12.1,3.9l-4.1,5.7c-2.7-1.9-5.6-2.9-8.2-2.9
			c-2,0-2.9,0.8-2.9,1.9v0.1c0,1.3,1,1.9,5.1,2.8c6.7,1.5,10.9,3.6,10.9,9.1v0.1c0,6-4.7,9.5-11.9,9.5
			C151.6,93.6,146.7,91.9,143.1,88.7z"/>
	</g>
</g>
</svg>
