<svg fill="none" height="1282" viewBox="0 0 1500 1282" width="1500" xmlns="http://www.w3.org/2000/svg" xmlns:xlink="http://www.w3.org/1999/xlink"><linearGradient id="a" gradientUnits="userSpaceOnUse" x1="88.1393" x2="639.418" y1="330.115" y2="1057.67"><stop offset="0" stop-color="#fe2857"/><stop offset="1" stop-color="#fc801d"/></linearGradient><linearGradient id="b" gradientUnits="userSpaceOnUse" x1="77.8053" x2="838.955" y1="269.682" y2="686.752"><stop offset="0" stop-color="#fe2857"/><stop offset="1" stop-color="#8351a8"/></linearGradient><linearGradient id="c" gradientUnits="userSpaceOnUse" x1="776.5" x2="284.5" y1="724" y2="799"><stop offset="0" stop-color="#8351a8"/><stop offset="1" stop-color="#6a5ab9"/></linearGradient><linearGradient id="d" gradientUnits="userSpaceOnUse" x1="1204.98" x2="252.992" y1="300.326" y2="751.224"><stop offset="0" stop-color="#087cfa"/><stop offset="1" stop-color="#6a5ab9"/></linearGradient><clipPath id="e"><path d="m0 0h1500v1281.28h-1500z"/></clipPath><g clip-path="url(#e)"><path d="m69.404 225.434 745.878 1025.386 14.013 29.67-44.223-9.2-785.072-998.847z" fill="url(#a)"/><path d="m891.642 653.28-47.538 100.839s-310.038-187.912-420.316-250.841c-110.279-62.929-423.788-230.835-423.788-230.835l69.404-47.009s272.885 137.941 360.286 183.419c87.4 45.479 461.952 244.427 461.952 244.427z" fill="url(#b)"/><path d="m201.748 742.224 516.756-72.078 173.137-16.866-47.538 100.839-626.222 116.931-89.13-102.327z" fill="url(#c)"/><path d="m1463.51 0 35.86 276.646-1281.489 594.404-89.13-102.327 968.179-640.75z" fill="url(#d)"/></g></svg>