<?xml version="1.0" encoding="UTF-8"?><svg height="300" viewBox="0 0 1920 300" width="1920" xmlns="http://www.w3.org/2000/svg" xmlns:xlink="http://www.w3.org/1999/xlink"><linearGradient id="a" gradientUnits="userSpaceOnUse" x1="1016.1471" x2="941.86671" y1="137.2889" y2="324.94463"><stop offset="0" stop-color="#f8ef49"/><stop offset="1" stop-color="#b5e66f"/></linearGradient><linearGradient id="b" gradientUnits="userSpaceOnUse" x1="1455.8347" x2="955.41942" y1="78.31253" y2="324.61068"><stop offset="0" stop-color="#07e2e2"/><stop offset="1" stop-color="#b5e66f"/></linearGradient><linearGradient id="c" gradientUnits="userSpaceOnUse" x1="1490.4566" x2="591.27289" y1="73.87086" y2="198.97468"><stop offset="0" stop-color="#07e2e2"/><stop offset="1" stop-color="#23aee5"/></linearGradient><linearGradient id="d" gradientUnits="userSpaceOnUse" x1="782.54756" x2="497.15447" y1="-195.24091" y2="242.62246"><stop offset="0" stop-color="#2086d7"/><stop offset="1" stop-color="#23aee5"/></linearGradient><path d="m901.991 300h103.84094l21.86806-175.09674-58.2-6.42072s-37.52838 101.42597-67.509 181.51746z" fill="url(#a)"/><path d="m1267.3 63.643-286.257 236.357h238.478l299.679-145.411 62.8-99.558-131.8-47.588z" fill="url(#b)"/><path d="m668.2 81.318-330.2 128.942 129.719 89.74h166.163l885.318-145.411 62.8-99.558-131.8-47.588z" fill="url(#c)"/><path d="m482.982 0-144.982 210.26 129.719 89.74h54.887l312.934-300z" fill="url(#d)"/></svg>