<?xml version="1.0" encoding="utf-8"?>
<svg width="3000" height="752" viewBox="0 0 1000 752" fill="none" xmlns="http://www.w3.org/2000/svg">
	<g clip-path="url(#clip0)">
		<path d="M483 506.25C648.685 506.25 783 371.935 783 206.25C783 40.5646 648.685 -93.75 483 -93.75C317.315 -93.75 183 40.5646 183 206.25C183 371.935 317.315 506.25 483 506.25Z" fill="#0075FF"/>
		<path d="M1263.05 694.199C1162.48 627.021 1026.5 654.099 959.336 754.664L1141.42 876.277L1263.05 694.199Z" fill="#278AFF"/>
		<path d="M503.75 -43.25L609.52 -60L658.13 35.4102L582.41 111.13L487 62.52L503.75 -43.25Z" fill="#51CBFF"/>
		<rect x="1220" y="298.547" width="80" height="80" transform="rotate(-50.2932 1220 298.547)" fill="#0A0A0A"/>
		<path d="M433.056 504.06L329.418 379.894C311.95 358.966 280.823 356.161 259.895 373.629C238.967 391.097 236.162 422.224 253.63 443.152L357.268 567.318C374.736 588.246 405.862 591.051 426.791 573.583C447.719 556.115 450.524 524.988 433.056 504.06Z" fill="#0342BA"/>
		<path d="M1346.34 444.052L1290.05 296L1142 352.288L1198.29 500.34L1346.34 444.052Z" fill="#0075FF"/>
		<path fill-rule="evenodd" clip-rule="evenodd" d="M1149 175.5C1149 242.05 1095.05 296 1028.5 296C961.95 296 908 242.05 908 175.5C908 108.95 961.95 55 1028.5 55C1095.05 55 1149 108.95 1149 175.5ZM1072.25 175.498C1072.25 199.66 1052.66 219.247 1028.5 219.247C1004.34 219.247 984.752 199.66 984.752 175.498C984.752 151.337 1004.34 131.75 1028.5 131.75C1052.66 131.75 1072.25 151.337 1072.25 175.498Z" fill="#278AFF"/>
		<path d="M1344.46 495.828C1368.9 506.802 1397.6 495.889 1408.58 471.454C1419.55 447.019 1408.64 418.315 1384.2 407.341C1359.77 396.368 1331.06 407.281 1320.09 431.716C1309.12 456.151 1320.03 484.855 1344.46 495.828Z" fill="#0342BA"/>
		<path d="M277.905 181.511C247.245 212.161 247.245 261.871 277.905 292.521L388.915 181.511C358.265 150.851 308.555 150.851 277.905 181.511Z" fill="#0646BA"/>
		<path fill-rule="evenodd" clip-rule="evenodd" d="M373.585 101.24C354.465 166.29 286.235 203.52 221.185 184.4C156.125 165.28 118.895 97.05 138.015 32L199.535 50.08C199.455 50.33 199.385 50.58 199.305 50.83C190.295 81.49 207.845 113.65 238.505 122.66C269.165 131.68 301.325 114.13 310.345 83.46C310.415 83.21 310.485 82.96 310.555 82.71L373.585 101.24Z" fill="#17E6E8"/>
		<path d="M413.5 228C435.315 228 453 210.315 453 188.5C453 166.685 435.315 149 413.5 149C391.685 149 374 166.685 374 188.5C374 210.315 391.685 228 413.5 228Z" fill="#69F26C"/>
		<path d="M1217 197.997C1249.94 158.585 1244.69 99.9353 1205.27 66.9992L1086 209.723C1125.41 242.659 1184.06 237.409 1217 197.997Z" fill="#69F26C"/>
		<path d="M1072.42 524.458L992.46 477.629L1073 431.795L1072.42 524.458Z" fill="#11E9CF"/>
		<path fill-rule="evenodd" clip-rule="evenodd" d="M831.839 649.327L854.379 662.34L874.492 627.504L909.321 647.612L922.334 625.072L887.505 604.964L907.616 570.131L885.076 557.117L864.965 591.95L830.125 571.835L817.111 594.375L851.952 614.49L831.839 649.327Z" fill="#69F26C"/>
		<path fill-rule="evenodd" clip-rule="evenodd" d="M703.023 511.999C792.122 504.208 870.265 449.42 907.998 368.335C860.859 301.072 784.193 261.699 703.03 261.699C695.754 261.699 688.444 262.016 681.113 262.657C643.38 343.742 651.657 438.706 703.023 511.999Z" fill="#69F26C"/>
		<path fill-rule="evenodd" clip-rule="evenodd" d="M681.359 262.657C681.359 262.657 760.72 290.659 813.06 368.335H908.001C861.085 301.072 784.437 261.699 703.276 261.699C696 261.699 688.69 262.016 681.359 262.657Z" fill="#2DB2F9"/>
		<path fill-rule="evenodd" clip-rule="evenodd" d="M813.07 368.343C801.627 444.022 703.023 512.005 703.023 512.005C792.666 503.497 871.328 449.758 907.999 368.316L813.07 368.343Z" fill="#2F6AD9"/>
		<circle cx="598" cy="650" r="40" fill="#2DB2F9"/>
	</g>
	<defs>
		<clipPath id="clip0">
			<rect width="1541" height="752" fill="white"/>
		</clipPath>
	</defs>
</svg>