<?xml version="1.0" encoding="utf-8"?>
<!-- Generator: Adobe Illustrator 24.0.1, SVG Export Plug-In . SVG Version: 6.00 Build 0)  -->
<svg version="1.1" id="Layer_1" xmlns="http://www.w3.org/2000/svg" xmlns:xlink="http://www.w3.org/1999/xlink" x="0px" y="0px"
	 viewBox="0 0 16 16" style="enable-background:new 0 0 16 16;" xml:space="preserve">
<style type="text/css">
	.st0{fill:#232F3E;}
	.st1{fill:#F69528;}
	.st2{fill:#FEFEFE;}
</style>
<g>
	<g>
		<path class="st0" d="M0,8c0-2.61,0-5.22,0-7.83C0,0.04,0.02,0,0.16,0c5.23,0.01,10.46,0,15.69,0C15.98,0,16,0.03,16,0.16
			c0,5.23,0,10.46,0,15.69c0,0.12-0.01,0.16-0.15,0.16c-5.24,0-10.47,0-15.71,0C0.02,16,0,15.97,0,15.85C0,13.24,0,10.62,0,8z"/>
		<path class="st1" d="M7.96,11.64c-2.14-0.03-4.05-0.7-5.7-2.06C2.17,9.5,2.08,9.43,2,9.35C1.95,9.3,1.94,9.24,1.97,9.19
			c0.03-0.05,0.1-0.04,0.15-0.02C2.16,9.18,2.2,9.21,2.24,9.23c1.97,1.1,4.09,1.6,6.34,1.52c1.37-0.05,2.69-0.35,3.96-0.86
			c0.14-0.06,0.32-0.19,0.42,0.02c0.09,0.19-0.11,0.26-0.23,0.34c-1.09,0.74-2.31,1.13-3.61,1.31C8.74,11.61,8.35,11.64,7.96,11.64z
			"/>
		<path class="st2" d="M8.14,5.34C8.03,5.82,7.91,6.29,7.8,6.77C7.72,7.11,7.63,7.45,7.56,7.8C7.52,7.98,7.43,8.05,7.24,8.05
			C6.73,8.03,6.79,8.1,6.64,7.61C6.36,6.67,6.07,5.73,5.79,4.78C5.77,4.73,5.76,4.67,5.74,4.61C5.72,4.52,5.77,4.47,5.86,4.47
			c0.01,0,0.01,0,0.02,0c0.61,0,0.52-0.07,0.66,0.47c0.2,0.77,0.39,1.54,0.6,2.38c0.11-0.45,0.2-0.84,0.29-1.23
			c0.11-0.46,0.22-0.92,0.32-1.38c0.04-0.17,0.13-0.24,0.3-0.24c0.47,0,0.47-0.01,0.58,0.45c0.17,0.74,0.35,1.49,0.52,2.23
			C9.17,7.2,9.2,7.25,9.22,7.33c0.22-0.86,0.44-1.69,0.65-2.52C9.9,4.7,9.9,4.54,10.02,4.5c0.17-0.06,0.36-0.05,0.53-0.01
			c0.12,0.02,0.06,0.15,0.04,0.22c-0.13,0.42-0.26,0.84-0.39,1.26c-0.19,0.61-0.38,1.22-0.56,1.83C9.58,7.98,9.48,8.05,9.28,8.05
			c-0.44-0.01-0.45,0-0.55-0.43C8.55,6.86,8.37,6.1,8.19,5.35C8.17,5.35,8.16,5.34,8.14,5.34z"/>
		<path class="st2" d="M4.73,7.59c-0.36,0.41-0.8,0.58-1.32,0.54C2.95,8.09,2.6,7.82,2.49,7.41c-0.13-0.5,0.04-0.99,0.44-1.25
			C3.36,5.88,3.84,5.9,4.32,5.98C4.7,6.04,4.7,6.04,4.69,5.65c-0.02-0.48-0.22-0.69-0.7-0.72C3.64,4.9,3.32,4.99,3,5.11
			c-0.09,0.03-0.21,0.15-0.3,0C2.63,4.99,2.69,4.7,2.79,4.65c0.65-0.31,1.33-0.42,2-0.11c0.43,0.2,0.54,0.62,0.56,1.05
			c0.01,0.45,0.01,0.91,0,1.36c0,0.23,0.03,0.44,0.15,0.63c0.08,0.13,0.07,0.24-0.08,0.31C5.41,7.9,5.39,7.92,5.38,7.93
			C5.1,8.11,5.02,8.1,4.85,7.8C4.81,7.74,4.78,7.67,4.73,7.59z"/>
		<path class="st2" d="M12.29,4.36c0.27,0.01,0.55,0.05,0.81,0.16c0.23,0.09,0.31,0.25,0.25,0.49c-0.04,0.15-0.13,0.1-0.22,0.06
			c-0.3-0.14-0.62-0.18-0.96-0.16c-0.1,0.01-0.2,0.03-0.29,0.06c-0.16,0.06-0.27,0.18-0.28,0.35c-0.02,0.18,0.06,0.31,0.21,0.4
			c0.18,0.11,0.38,0.16,0.57,0.23c0.19,0.07,0.38,0.12,0.56,0.2c0.72,0.32,0.81,1.23,0.18,1.71c-0.24,0.18-0.52,0.26-0.82,0.28
			c-0.4,0.03-0.78-0.03-1.16-0.17c-0.2-0.07-0.28-0.2-0.26-0.41c0.02-0.21,0.05-0.24,0.24-0.16c0.35,0.15,0.71,0.22,1.09,0.2
			c0.15-0.01,0.29-0.04,0.42-0.11c0.15-0.08,0.23-0.21,0.24-0.39c0-0.18-0.08-0.3-0.24-0.38c-0.24-0.13-0.51-0.19-0.77-0.27
			c-0.14-0.05-0.28-0.09-0.41-0.16C10.78,5.9,10.76,5,11.42,4.58C11.69,4.42,11.98,4.37,12.29,4.36z"/>
		<path class="st1" d="M12.7,9.38c-0.25,0.02-0.5,0.05-0.76,0.07c-0.05,0-0.11,0.03-0.14-0.04c-0.03-0.07,0.03-0.11,0.08-0.14
			c0.23-0.16,0.48-0.25,0.75-0.3c0.38-0.07,0.77-0.07,1.15,0.01C13.97,9,14.05,9.09,14.05,9.3c-0.02,0.62-0.23,1.17-0.63,1.64
			c-0.04,0.05-0.09,0.1-0.14,0.14c-0.05,0.04-0.1,0.09-0.16,0.05c-0.07-0.05-0.02-0.11,0-0.16c0.09-0.24,0.18-0.49,0.26-0.73
			c0.05-0.16,0.09-0.33,0.11-0.51c0.02-0.2-0.08-0.3-0.27-0.32C13.05,9.38,12.87,9.37,12.7,9.38z"/>
		<path class="st0" d="M3.99,6.4c0.19,0.03,0.38,0.06,0.57,0.08c0.1,0.01,0.13,0.06,0.13,0.15C4.71,7.28,4.2,7.72,3.56,7.59
			c-0.23-0.04-0.37-0.2-0.4-0.44C3.12,6.84,3.23,6.61,3.48,6.49C3.59,6.44,3.81,6.41,3.99,6.4z"/>
	</g>
</g>
</svg>
